<?xml version="1.0" encoding="UTF-8"?>
<svg id="Layer_2" data-name="Layer 2" xmlns="http://www.w3.org/2000/svg" width="2042.49" height="461.96" viewBox="0 0 2042.49 461.96">
  <defs>
    <style>
      .cls-1 {
        fill: none;
      }

      .cls-1, .cls-2, .cls-3, .cls-4, .cls-5, .cls-6, .cls-7, .cls-8, .cls-9, .cls-10, .cls-11, .cls-12, .cls-13, .cls-14, .cls-15, .cls-16, .cls-17, .cls-18, .cls-19 {
        stroke-width: 0px;
      }

      .cls-20 {
        opacity: .08;
      }

      .cls-21, .cls-2 {
        opacity: .12;
      }

      .cls-2, .cls-5 {
        fill: #38c6f4;
      }

      .cls-3 {
        opacity: .7;
      }

      .cls-3, .cls-10, .cls-17, .cls-19 {
        fill: #fffbca;
      }

      .cls-4 {
        fill: #95cf9c;
      }

      .cls-6 {
        fill: #dbf1f8;
      }

      .cls-7 {
        fill: #fed8ab;
      }

      .cls-8 {
        fill: #71c9f1;
      }

      .cls-9 {
        fill: #68c6b4;
      }

      .cls-10 {
        opacity: .6;
      }

      .cls-11 {
        fill: #a9e0f9;
      }

      .cls-12 {
        fill: #ffd482;
      }

      .cls-13 {
        fill: #ffd9ab;
      }

      .cls-14 {
        fill: #42ba90;
      }

      .cls-15 {
        opacity: .5;
      }

      .cls-15, .cls-16 {
        fill: #fff;
      }

      .cls-17 {
        opacity: .4;
      }

      .cls-18 {
        fill: #badeb9;
        opacity: .8;
      }
    </style>
  </defs>
  <g id="Island">
    <path class="cls-16" d="M2037.83,293.49c-10.69-25.99-37.82-41.4-65.15-38-.74-3.98-1.89-7.88-3.44-11.65-5.98-14.54-17.26-25.89-31.78-31.94-14.51-6.06-30.51-6.1-45.06-.12-3.64,1.5-7.11,3.35-10.37,5.53-15.61-17.86-40.51-25.31-63.38-19.02-.76-3.33-1.8-6.6-3.11-9.79-6.3-15.35-18.21-27.31-33.51-33.69-13.75-5.74-28.76-6.34-42.79-1.84.68-28.86-20.13-54.56-49.41-59.16-26.16-4.1-51.85,10.21-62.47,33.89-3.57-1.35-7.27-2.33-11.06-2.93-14.64-2.3-29.29,1.24-41.27,9.97-11.98,8.73-19.84,21.59-22.13,36.23-.57,3.67-.78,7.37-.62,11.06-22.02,3.84-40.2,20.25-46.31,41.75-3.06-1.01-6.2-1.78-9.41-2.28-15.44-2.43-30.9,1.31-43.53,10.51-12.63,9.2-20.92,22.78-23.35,38.22-5,31.88,16.86,61.88,48.73,66.88,3.07.48,6.15.72,9.2.72,12.28,0,24.22-3.86,34.34-11.24,10.73-7.82,18.33-18.79,21.86-31.38,3.05,1.01,6.19,1.77,9.39,2.28,15.44,2.43,30.9-1.31,43.53-10.51,11.18-8.15,18.96-19.71,22.28-32.97,2.54,1.15,5.87,2.86,8.77,4.35,10.19,5.24,22.86,11.76,34.68,13.62,15.44,2.43,30.9-1.31,43.53-10.51,2.64-1.92,5.08-4.05,7.33-6.33,5.83,6.07,12.89,10.95,20.89,14.29,13,5.43,21.08,14.93,33.3,19.13.76,3.33,9.82,3.09,11.13,6.27,6.3,15.34,17.4,14.21,32.7,20.6,13.55,5.65,19.45,20.14,33.3,15.85.36,2.94,9.75,3.11,9.99,6.56.86,12.13,1.69,17.21,6.52,28.96,6.3,15.34,18.21,27.31,33.52,33.69,15.31,6.39,32.18,6.43,47.53.12,11.32-4.65,20.78-12.32,27.6-22.32,11.53,2.02,23.27.75,34.22-3.76,31.67-13.02,46.84-49.37,33.82-81.04Z"/>
    <path class="cls-1" d="M1968.6,269.6c-2.97.74-6.21-.64-7.63-3.74-.34-.73-.48-1.54-.52-2.34-.3-5.05-1.43-9.99-3.35-14.67-4.64-11.3-13.41-20.11-24.68-24.81-11.27-4.7-23.7-4.74-35-.09-4.48,1.84-8.61,4.37-12.3,7.51-2.22,1.89-5.53,2.17-8.17.31-.61-.43-1.11-1.01-1.54-1.63-13-18.67-37.69-25.93-58.76-17.27l-.63.28c-2.83,1.21-6.26.32-8.13-2.5-.61-.91-.9-1.99-1-3.08-.45-4.81-1.62-9.54-3.47-14.04-.99-2.41-2.15-4.71-3.48-6.89-5.33-8.78-13.28-15.64-22.94-19.67-12.07-5.04-25.37-5.07-37.47-.1-.61.25-1.2.53-1.79.8-5.23,1.45-12.24-.42-11.92-5.61.07-.38.14-.8.21-1.26.1-.59.2-1.25.32-1.99l.14-1.23c2.48-22.35-11.03-43.76-32.59-50.15-24.4-7.24-49.83,6.89-57.16,30.49-.86,2.75-3.56,4.69-6.75,4.32-.7-.08-1.37-.33-1.99-.65-2.88-1.46-5.86-2.74-8.98-3.57-12.86-3.44-26.11-.93-36.68,6.77-9.3,6.78-15.41,16.77-17.19,28.14-.71,4.51-.7,9.07.03,13.58.44,2.71-.96,5.52-3.74,6.73-.65.28-1.36.4-2.07.45-21.39,1.34-39.33,17.68-42.66,38.88l-.08.65c-.41,2.87-2.8,5.2-5.99,5.33-1.03.04-2.04-.25-2.97-.7-4.1-1.99-8.47-3.36-13.01-4.07-2.42-.38-4.85-.57-7.25-.57-9.68,0-19.09,3.04-27.07,8.86-9.96,7.26-16.5,17.96-18.41,30.13-3.94,25.13,13.29,48.78,38.42,52.72,12.17,1.91,24.36-1.03,34.32-8.29,9.96-7.26,16.49-17.96,18.4-30.13l.08-.65c.42-2.88,2.82-5.21,6.03-5.32,1.03-.03,2.04.26,2.96.71,4.09,1.98,8.46,3.35,12.99,4.06,12.17,1.91,24.36-1.04,34.32-8.29,9.96-7.26,16.49-17.96,18.4-30.13.39-2.47,1.85-4.52,4.02-5.62,4.86-2.46,10.45.41,21.58,6.14,9.39,4.83,21.09,10.85,30.93,12.39,12.17,1.92,24.36-1.03,34.32-8.29,2.54-1.85,4.85-3.92,6.92-6.19,1.01-1.1,1.96-2.26,2.85-3.45,1.44-1.08,3.15-1.85,4.9-2.24,2.17-.49,4.42.35,5.76,2.13.76,1.01,1.56,1.99,2.4,2.94,4.82,5.44,10.84,9.76,17.75,12.65,12.07,5.04,25.37,5.07,37.47.1l.64-.28c2.84-1.21,6.28-.31,8.14,2.54.6.91.89,1.99.99,3.08.45,4.8,1.62,9.52,3.47,14.01,4.98,12.09,14.36,21.52,26.42,26.56,12.07,5.04,25.37,5.07,37.47.1,2.46-1.01,5.12-.81,7.32.55,4.91,3.05,5.39,9.7,6.32,22.96.79,11.18,1.77,25.1,5.8,34.88,4.96,12.09,14.35,21.53,26.42,26.56,12.07,5.04,25.37,5.07,37.47.1,10.11-4.16,18.33-11.36,23.78-20.83,1.47-2.56,4.47-3.82,7.33-3.09,10.27,2.63,20.89,1.88,30.71-2.16,22.46-9.23,34.38-33.35,29.08-56.28l-15.24,1.39,15.24-1.39c-.59-2.56-1.39-5.1-2.42-7.61-9.17-22.31-33.71-34.73-57.07-28.89Z"/>
    <path class="cls-1" d="M1968.6,269.6c-2.97.74-6.21-.64-7.63-3.74-.34-.73-.48-1.54-.52-2.34-.3-5.05-1.43-9.99-3.35-14.67-4.64-11.3-13.41-20.11-24.68-24.81-11.27-4.7-23.7-4.74-35-.09-4.48,1.84-8.61,4.37-12.3,7.51-2.22,1.89-5.53,2.17-8.17.31-.61-.43-1.11-1.01-1.54-1.63-13-18.67-37.69-25.93-58.76-17.27l-.63.28c-2.83,1.21-6.26.32-8.13-2.5-.61-.91-.9-1.99-1-3.08-.45-4.81-1.62-9.54-3.47-14.04-.99-2.41-2.15-4.71-3.48-6.89-5.33-8.78-13.28-15.64-22.94-19.67-12.07-5.04-25.37-5.07-37.47-.1-.61.25-1.2.53-1.79.8-5.23,1.45-12.24-.42-11.92-5.61.07-.38.14-.8.21-1.26.1-.59.2-1.25.32-1.99l.14-1.23c2.48-22.35-11.03-43.76-32.59-50.15-24.4-7.24-49.83,6.89-57.16,30.49-.86,2.75-3.56,4.69-6.75,4.32-.7-.08-1.37-.33-1.99-.65-2.88-1.46-5.86-2.74-8.98-3.57-12.86-3.44-26.11-.93-36.68,6.77-9.3,6.78-15.41,16.77-17.19,28.14-.71,4.51-.7,9.07.03,13.58.44,2.71-.96,5.52-3.74,6.73-.65.28-1.36.4-2.07.45-21.39,1.34-39.33,17.68-42.66,38.88l-.08.65c-.41,2.87-2.8,5.2-5.99,5.33-1.03.04-2.04-.25-2.97-.7-4.1-1.99-8.47-3.36-13.01-4.07-2.42-.38-4.85-.57-7.25-.57-9.68,0-19.09,3.04-27.07,8.86-9.96,7.26-16.5,17.96-18.41,30.13-3.94,25.13,13.29,48.78,38.42,52.72,12.17,1.91,24.36-1.03,34.32-8.29,9.96-7.26,16.49-17.96,18.4-30.13l.08-.65c.42-2.88,2.82-5.21,6.03-5.32,1.03-.03,2.04.26,2.96.71,4.09,1.98,8.46,3.35,12.99,4.06,12.17,1.91,24.36-1.04,34.32-8.29,9.96-7.26,16.49-17.96,18.4-30.13.39-2.47,1.85-4.52,4.02-5.62,4.86-2.46,10.45.41,21.58,6.14,9.39,4.83,21.09,10.85,30.93,12.39,12.17,1.92,24.36-1.03,34.32-8.29,2.54-1.85,4.85-3.92,6.92-6.19,1.01-1.1,1.96-2.26,2.85-3.45,1.44-1.08,3.15-1.85,4.9-2.24,2.17-.49,4.42.35,5.76,2.13.76,1.01,1.56,1.99,2.4,2.94,2.09,2.36,4.42,4.49,6.93,6.4l4.78-6.44-4.78,6.44c3.29,2.5,6.9,4.61,10.82,6.25,12.07,5.04,25.37,5.07,37.47.1l.64-.28c2.84-1.21,6.28-.31,8.14,2.54.6.91.89,1.99.99,3.08.45,4.8,1.62,9.52,3.47,14.01,4.98,12.09,14.36,21.52,26.42,26.56,12.07,5.04,25.37,5.07,37.47.1,2.46-1.01,5.12-.81,7.32.55,4.91,3.05,5.39,9.7,6.32,22.96.79,11.18,1.77,25.1,5.8,34.88,4.96,12.09,14.35,21.53,26.42,26.56,12.07,5.04,25.37,5.07,37.47.1,10.11-4.16,18.33-11.36,23.78-20.83,1.47-2.56,4.47-3.82,7.33-3.09,10.27,2.63,20.89,1.88,30.71-2.16,22.46-9.23,34.38-33.35,29.08-56.28-.59-2.56-1.39-5.1-2.42-7.61-9.17-22.31-33.71-34.73-57.07-28.89Z"/>
    <g>
      <path class="cls-16" d="M1721.52,244.65c-.84-.95-1.64-1.93-2.4-2.94-1.34-1.78-3.58-2.62-5.76-2.13-1.75.4-3.46,1.17-4.9,2.24-.89,1.19-1.84,2.35-2.85,3.45-2.07,2.26-4.38,4.34-6.92,6.19-9.96,7.26-22.15,10.2-34.32,8.29-9.85-1.54-21.54-7.56-30.93-12.39-11.13-5.73-16.72-8.6-21.58-6.14-2.17,1.1-3.64,3.15-4.02,5.62-1.91,12.17-8.45,22.87-18.4,30.13-9.96,7.26-22.15,10.2-34.32,8.29-4.53-.71-8.9-2.08-12.99-4.06-.93-.45-1.93-.74-2.96-.71-3.21.1-5.61,2.44-6.03,5.32l-.08.65c-1.91,12.17-8.45,22.87-18.4,30.13-9.96,7.26-22.15,10.2-34.32,8.29-25.13-3.94-42.36-27.6-38.42-52.72,1.91-12.17,8.45-22.87,18.41-30.13,7.98-5.81,17.38-8.86,27.07-8.86,2.41,0,4.83.19,7.25.57,4.54.71,8.92,2.08,13.01,4.07.93.45,1.94.74,2.97.7,3.19-.13,5.58-2.46,5.99-5.33l.08-.65c3.33-21.21,21.26-37.55,42.66-38.88.71-.04,1.42-.16,2.07-.45,2.79-1.21,4.18-4.02,3.74-6.73-.73-4.5-.74-9.07-.03-13.58,1.79-11.37,7.89-21.37,17.19-28.14,10.56-7.7,23.82-10.2,36.68-6.77,3.12.83,6.1,2.11,8.98,3.57.63.32,1.3.57,1.99.65,3.2.37,5.9-1.57,6.75-4.32,7.32-23.6,32.76-37.72,57.16-30.49,21.56,6.39,35.07,27.8,32.59,50.15l-.14,1.23c-.12.74-.22,1.4-.32,1.99.04-.16.08-.32.14-.48-.05.16-.1.32-.14.48-.08.46-.15.88-.21,1.26-.32,5.18,6.69,7.05,11.92,5.61.59-.27,1.18-.55,1.79-.8,12.09-4.97,25.4-4.94,37.47.1,9.67,4.03,17.61,10.89,22.94,19.67,1.32,2.18,2.49,4.48,3.48,6.89,1.85,4.51,3.02,9.23,3.47,14.04.1,1.09.4,2.17,1,3.08,1.88,2.83,5.3,3.71,8.13,2.5l.63-.28c21.07-8.66,45.77-1.4,58.76,17.27.43.62.93,1.2,1.54,1.63,2.63,1.86,5.95,1.58,8.17-.31,3.68-3.14,7.82-5.67,12.3-7.51,11.3-4.64,23.73-4.61,35,.09,11.27,4.7,20.04,13.52,24.68,24.81,1.92,4.68,3.05,9.61,3.35,14.67.05.8.19,1.61.52,2.34,1.43,3.1,4.67,4.48,7.63,3.74,23.36-5.84,47.9,6.59,57.07,28.89,1.03,2.51,1.83,5.05,2.42,7.61l13.18-1.2c-.77-3.84-1.9-7.66-3.45-11.41-10.69-25.99-37.82-41.4-65.15-38-.74-3.98-1.89-7.88-3.44-11.65-5.98-14.54-17.26-25.89-31.78-31.94-14.51-6.06-30.51-6.1-45.06-.12-3.64,1.5-7.11,3.35-10.37,5.53-15.61-17.86-40.51-25.31-63.38-19.02-.76-3.33-1.8-6.6-3.11-9.79-6.3-15.35-18.21-27.31-33.51-33.69-13.75-5.74-28.76-6.34-42.79-1.84.68-28.86-20.13-54.56-49.41-59.16-26.16-4.1-51.85,10.21-62.47,33.89-3.57-1.35-7.27-2.33-11.06-2.93-14.64-2.3-29.29,1.24-41.27,9.97-11.98,8.73-19.84,21.59-22.13,36.23-.57,3.67-.78,7.37-.62,11.06-22.02,3.84-40.2,20.25-46.31,41.75-3.06-1.01-6.2-1.78-9.41-2.28-15.44-2.43-30.9,1.31-43.53,10.51-12.63,9.2-20.92,22.78-23.35,38.22-5,31.88,16.86,61.88,48.73,66.88,3.07.48,6.15.72,9.2.72,12.28,0,24.22-3.86,34.34-11.24,10.73-7.82,18.33-18.79,21.86-31.38,3.05,1.01,6.19,1.77,9.39,2.28,15.44,2.43,30.9-1.31,43.53-10.51,11.18-8.15,18.96-19.71,22.28-32.97,2.54,1.15,5.87,2.86,8.77,4.35,10.19,5.24,22.86,11.76,34.68,13.62,15.44,2.43,30.9-1.31,43.53-10.51,2.64-1.92,5.08-4.05,7.33-6.33,2.25,2.35,4.69,4.51,7.3,6.48l7.84-10.57c-2.52-1.91-4.84-4.05-6.93-6.4Z"/>
      <path class="cls-2" d="M1721.52,244.65c-.84-.95-1.64-1.93-2.4-2.94-1.34-1.78-3.58-2.62-5.76-2.13-1.75.4-3.46,1.17-4.9,2.24-.89,1.19-1.84,2.35-2.85,3.45-2.07,2.26-4.38,4.34-6.92,6.19-9.96,7.26-22.15,10.2-34.32,8.29-9.85-1.54-21.54-7.56-30.93-12.39-11.13-5.73-16.72-8.6-21.58-6.14-2.17,1.1-3.64,3.15-4.02,5.62-1.91,12.17-8.45,22.87-18.4,30.13-9.96,7.26-22.15,10.2-34.32,8.29-4.53-.71-8.9-2.08-12.99-4.06-.93-.45-1.93-.74-2.96-.71-3.21.1-5.61,2.44-6.03,5.32l-.08.65c-1.91,12.17-8.45,22.87-18.4,30.13-9.96,7.26-22.15,10.2-34.32,8.29-25.13-3.94-42.36-27.6-38.42-52.72,1.91-12.17,8.45-22.87,18.41-30.13,7.98-5.81,17.38-8.86,27.07-8.86,2.41,0,4.83.19,7.25.57,4.54.71,8.92,2.08,13.01,4.07.93.45,1.94.74,2.97.7,3.19-.13,5.58-2.46,5.99-5.33l.08-.65c3.33-21.21,21.26-37.55,42.66-38.88.71-.04,1.42-.16,2.07-.45,2.79-1.21,4.18-4.02,3.74-6.73-.73-4.5-.74-9.07-.03-13.58,1.79-11.37,7.89-21.37,17.19-28.14,10.56-7.7,23.82-10.2,36.68-6.77,3.12.83,6.1,2.11,8.98,3.57.63.32,1.3.57,1.99.65,3.2.37,5.9-1.57,6.75-4.32,7.32-23.6,32.76-37.72,57.16-30.49,21.56,6.39,35.07,27.8,32.59,50.15l-.14,1.23c-.12.74-.22,1.4-.32,1.99.04-.16.08-.32.14-.48-.05.16-.1.32-.14.48-.08.46-.15.88-.21,1.26-.32,5.18,6.69,7.05,11.92,5.61.59-.27,1.18-.55,1.79-.8,12.09-4.97,25.4-4.94,37.47.1,9.67,4.03,17.61,10.89,22.94,19.67,1.32,2.18,2.49,4.48,3.48,6.89,1.85,4.51,3.02,9.23,3.47,14.04.1,1.09.4,2.17,1,3.08,1.88,2.83,5.3,3.71,8.13,2.5l.63-.28c21.07-8.66,45.77-1.4,58.76,17.27.43.62.93,1.2,1.54,1.63,2.63,1.86,5.95,1.58,8.17-.31,3.68-3.14,7.82-5.67,12.3-7.51,11.3-4.64,23.73-4.61,35,.09,11.27,4.7,20.04,13.52,24.68,24.81,1.92,4.68,3.05,9.61,3.35,14.67.05.8.19,1.61.52,2.34,1.43,3.1,4.67,4.48,7.63,3.74,23.36-5.84,47.9,6.59,57.07,28.89,1.03,2.51,1.83,5.05,2.42,7.61l13.18-1.2c-.77-3.84-1.9-7.66-3.45-11.41-10.69-25.99-37.82-41.4-65.15-38-.74-3.98-1.89-7.88-3.44-11.65-5.98-14.54-17.26-25.89-31.78-31.94-14.51-6.06-30.51-6.1-45.06-.12-3.64,1.5-7.11,3.35-10.37,5.53-15.61-17.86-40.51-25.31-63.38-19.02-.76-3.33-1.8-6.6-3.11-9.79-6.3-15.35-18.21-27.31-33.51-33.69-13.75-5.74-28.76-6.34-42.79-1.84.68-28.86-20.13-54.56-49.41-59.16-26.16-4.1-51.85,10.21-62.47,33.89-3.57-1.35-7.27-2.33-11.06-2.93-14.64-2.3-29.29,1.24-41.27,9.97-11.98,8.73-19.84,21.59-22.13,36.23-.57,3.67-.78,7.37-.62,11.06-22.02,3.84-40.2,20.25-46.31,41.75-3.06-1.01-6.2-1.78-9.41-2.28-15.44-2.43-30.9,1.31-43.53,10.51-12.63,9.2-20.92,22.78-23.35,38.22-5,31.88,16.86,61.88,48.73,66.88,3.07.48,6.15.72,9.2.72,12.28,0,24.22-3.86,34.34-11.24,10.73-7.82,18.33-18.79,21.86-31.38,3.05,1.01,6.19,1.77,9.39,2.28,15.44,2.43,30.9-1.31,43.53-10.51,11.18-8.15,18.96-19.71,22.28-32.97,2.54,1.15,5.87,2.86,8.77,4.35,10.19,5.24,22.86,11.76,34.68,13.62,15.44,2.43,30.9-1.31,43.53-10.51,2.64-1.92,5.08-4.05,7.33-6.33,2.25,2.35,4.69,4.51,7.3,6.48l7.84-10.57c-2.52-1.91-4.84-4.05-6.93-6.4Z"/>
    </g>
    <path class="cls-16" d="M1519.45,300.32c-6.01-2.53-12.27-3.58-18.38-3.3,1.09-18.55-9.42-36.61-27.52-44.24-20.91-8.82-44.72-.67-56.13,18.19-.27-.12-.53-.25-.8-.36-10.22-4.31-21.14-4.56-30.96-1.49-4.62-9.43-12.53-17.31-22.97-21.71-1.1-.46-2.21-.87-3.33-1.24-3.76-12.39-12.79-23.09-25.66-28.51-11.77-4.96-24.46-4.54-35.34.13-4.73-6.94-11.43-12.66-19.75-16.16-21.03-8.87-44.98-.58-56.31,18.51-9.02-.76-17.96,1.24-25.7,5.53-4.65-6.25-10.97-11.39-18.67-14.64-22.97-9.68-49.44,1.09-59.12,24.05-9.68,22.97,1.09,49.44,24.05,59.12,13.29,5.6,27.74,4.35,39.44-2.14,4.65,6.25,10.97,11.39,18.67,14.64,17.47,7.37,36.96,2.89,49.56-9.79-.88,17.99,9.15,35.44,26.39,43.28h37.38c.61-.28,1.22-.56,1.81-.86.06.29.15.57.22.86h229.11c.27-16.83-9.53-32.93-25.99-39.87Z"/>
    <g>
      <path class="cls-16" d="M769.58,238.73c-6.4-11.13-18.46-18.19-31.4-18.19-9.03,0-17.54,3.3-24.12,9.21-6.48-10.7-18.04-17.34-30.91-17.34-3.45,0-6.83.48-10.11,1.44-6.7-9.84-17.87-15.82-29.92-15.82-.25,0-.51,0-.76,0-2.47-11.77-11.34-21.12-22.88-24.24,1.11-3.69,1.67-7.52,1.67-11.43,0-22.02-17.91-39.93-39.93-39.93-.77,0-1.55.02-2.37.08-.26-.05-.52-.08-.8-.08h-.24c-4.3-15.52-18.44-26.45-34.86-26.45-10.68,0-20.75,4.72-27.6,12.79-4.37-1.81-9.1-2.76-13.86-2.76-.6,0-1.22.02-1.85.05-6.72-9.68-17.89-15.6-29.75-15.6-2.46,0-4.9.25-7.3.74-5.79-12.89-18.6-21.31-32.99-21.31-6.9,0-13.51,1.91-19.28,5.56-5.13-2.66-10.83-4.05-16.64-4.05-5.28,0-10.47,1.15-15.22,3.36-6.83-7.71-16.72-12.22-27.1-12.22-19.95,0-36.19,16.23-36.19,36.19,0,10.72,4.77,20.52,12.39,27.21-13.01,2.8-23.57,12.6-27.18,25.64h-.24c-.27,0-.54.03-.8.08-.82-.05-1.6-.08-2.37-.08-22.02,0-39.93,17.91-39.93,39.93,0,3.91.56,7.74,1.67,11.43-11.54,3.12-20.42,12.47-22.88,24.24-.26,0-.51,0-.76,0-12.05,0-23.21,5.98-29.92,15.82-3.28-.96-6.66-1.44-10.11-1.44-12.87,0-24.43,6.64-30.91,17.34-6.58-5.91-15.09-9.21-24.12-9.21-12.94,0-25,7.06-31.4,18.19-19.02,1.05-34.18,16.85-34.18,36.13s16.23,36.19,36.19,36.19c12.94,0,24.99-7.06,31.4-18.19,2.93-.16,5.81-.67,8.6-1.53,6.85,8.49,17.15,13.47,28.17,13.47,15.63,0,29.49-10.11,34.35-24.81,17.13-8.74,21.12-9.55,21.95-9.58,17.75,0,285.32-37.5,296.7-39.1,1.75-.24,3.1-1.55,3.48-3.21,54.23,7.24,100.77,13.17,107.83,13.17.82.04,4.82.85,21.95,9.58,4.86,14.7,18.73,24.81,34.35,24.81,11.02,0,21.32-4.98,28.17-13.47,2.79.86,5.67,1.37,8.6,1.53,6.4,11.13,18.46,18.19,31.4,18.19,19.95,0,36.19-16.23,36.19-36.19s-15.16-35.09-34.18-36.13Z"/>
      <g>
        <g class="cls-20">
          <path class="cls-16" d="M769.58,238.73c-6.4-11.13-18.46-18.19-31.4-18.19-9.03,0-17.54,3.3-24.12,9.21-6.48-10.7-18.04-17.34-30.91-17.34-3.45,0-6.83.48-10.11,1.44-6.7-9.84-17.87-15.82-29.92-15.82-.25,0-.51,0-.76,0-2.47-11.77-11.34-21.12-22.88-24.24,1.11-3.69,1.67-7.52,1.67-11.43,0-22.02-17.91-39.93-39.93-39.93-.77,0-1.55.02-2.37.08-.26-.05-.52-.08-.8-.08h-.24c-4.3-15.52-18.44-26.45-34.86-26.45-10.68,0-20.75,4.72-27.6,12.79-4.37-1.81-9.1-2.76-13.86-2.76-.6,0-1.22.02-1.85.05-6.72-9.68-17.89-15.6-29.75-15.6-2.46,0-4.9.25-7.3.74-5.79-12.89-18.6-21.31-32.99-21.31-6.9,0-13.51,1.91-19.28,5.56-5.13-2.66-10.83-4.05-16.64-4.05-5.28,0-10.47,1.15-15.22,3.36-6.83-7.71-16.72-12.22-27.1-12.22-19.95,0-36.19,16.23-36.19,36.19,0,10.72,4.77,20.52,12.39,27.21-13.01,2.8-23.57,12.6-27.18,25.64h-.24c-.27,0-.54.03-.8.08-.82-.05-1.6-.08-2.37-.08-22.02,0-39.93,17.91-39.93,39.93,0,3.91.56,7.74,1.67,11.43-11.54,3.12-20.42,12.47-22.88,24.24-.26,0-.51,0-.76,0-12.05,0-23.21,5.98-29.92,15.82-3.28-.96-6.66-1.44-10.11-1.44-12.87,0-24.43,6.64-30.91,17.34-6.58-5.91-15.09-9.21-24.12-9.21-12.94,0-25,7.06-31.4,18.19-19.02,1.05-34.18,16.85-34.18,36.13s16.23,36.19,36.19,36.19c12.94,0,24.99-7.06,31.4-18.19,2.93-.16,5.81-.67,8.6-1.53,6.85,8.49,17.15,13.47,28.17,13.47,15.63,0,29.49-10.11,34.35-24.81,17.13-8.74,21.12-9.55,21.95-9.58,17.75,0,285.32-37.5,296.7-39.1,1.75-.24,3.1-1.55,3.48-3.21,54.23,7.24,100.77,13.17,107.83,13.17.82.04,4.82.85,21.95,9.58,4.86,14.7,18.73,24.81,34.35,24.81,11.02,0,21.32-4.98,28.17-13.47,2.79.86,5.67,1.37,8.6,1.53,6.4,11.13,18.46,18.19,31.4,18.19,19.95,0,36.19-16.23,36.19-36.19s-15.16-35.09-34.18-36.13ZM767.57,302.71c-10.64,0-20.49-6.2-25.11-15.79-.7-1.44-2.16-2.36-3.76-2.36-.02,0-.05,0-.07,0h-.45c-3.64.01-7.19-.68-10.55-2.06-1.84-.75-3.95-.11-5.05,1.54-5.19,7.77-13.85,12.41-23.18,12.41-12.51,0-23.56-8.42-26.86-20.48-.31-1.13-1.08-2.07-2.11-2.61-19.38-9.97-24.68-11.31-27.31-11.31-6.28,0-48.41-5.32-101.49-12.39l-27.87,4.67c.25.03.5.07.75.1-99.4,13.89-266.42,36.76-279.44,36.76-2.63,0-7.93,1.34-27.31,11.31-1.04.53-1.81,1.48-2.11,2.61-3.3,12.06-14.35,20.48-26.86,20.48-9.33,0-17.99-4.64-23.18-12.41-1.1-1.65-3.21-2.29-5.05-1.54-3.36,1.38-6.91,2.07-10.55,2.07h-.45s-.05-.01-.07-.01c-1.6,0-3.06.92-3.76,2.36-4.62,9.59-14.47,15.79-25.11,15.79-15.36,0-27.85-12.49-27.85-27.85s12.49-27.85,27.85-27.85h.45c1.59.07,3.12-.88,3.83-2.35,4.62-9.59,14.47-15.79,25.11-15.79,8.6,0,16.59,3.89,21.92,10.68.92,1.18,2.41,1.77,3.89,1.55,1.48-.22,2.73-1.22,3.27-2.61,4.2-10.78,14.39-17.75,25.95-17.75,3.57,0,7.05.67,10.36,2,1.96.79,4.2-.02,5.21-1.87,4.89-8.95,14.26-14.51,24.45-14.51,1.22,0,2.49.09,3.77.26,1.14.16,2.29-.17,3.18-.89.89-.72,1.45-1.78,1.54-2.92.88-11.43,9.8-20.55,21.2-21.68,1.33-.13,2.52-.9,3.2-2.06.67-1.16.75-2.57.2-3.8-1.83-4.08-2.76-8.43-2.76-12.92,0-17.42,14.17-31.59,31.59-31.59.88,0,1.79.04,2.8.13.5.04.99,0,1.46-.13h2.46c2.02,0,3.76-1.45,4.11-3.45,2.34-13.33,13.87-23.01,27.42-23.01.79,0,1.57.05,2.35.11l1-10.11c-9-4.68-15.08-14.12-15.08-24.73,0-15.36,12.49-27.85,27.85-27.85,8.93,0,17.38,4.34,22.61,11.6,1.26,1.75,3.65,2.25,5.51,1.15,4.29-2.55,9.2-3.89,14.2-3.89s10.26,1.44,14.65,4.17c1.45.9,3.31.82,4.68-.2,4.82-3.58,10.56-5.48,16.59-5.48,12.1,0,22.74,7.73,26.49,19.23.71,2.19,3.06,3.38,5.24,2.68,2.77-.89,5.65-1.35,8.56-1.35,9.82,0,19.02,5.27,24.02,13.75.84,1.43,2.46,2.22,4.11,2.02,1.21-.15,2.35-.22,3.48-.22,4.59,0,9.13,1.14,13.15,3.3,1.87,1,4.19.44,5.4-1.3,5.21-7.53,13.78-12.03,22.91-12.03,13.55,0,25.08,9.68,27.42,23.01.35,1.99,2.08,3.45,4.11,3.45h2.46c.47.13.97.17,1.46.13,1.01-.09,1.93-.13,2.8-.13,17.42,0,31.59,14.17,31.59,31.59,0,4.49-.93,8.83-2.76,12.92-.55,1.22-.48,2.64.2,3.8.67,1.16,1.86,1.93,3.2,2.06,11.4,1.13,20.32,10.25,21.2,21.68.09,1.14.64,2.2,1.54,2.92.89.72,2.04,1.05,3.18.89,1.29-.17,2.55-.26,3.77-.26,10.19,0,19.56,5.56,24.45,14.51,1.01,1.85,3.25,2.66,5.21,1.87,3.31-1.33,6.79-2,10.36-2,11.56,0,21.75,6.97,25.95,17.75.54,1.4,1.79,2.39,3.27,2.61,1.48.22,2.96-.37,3.89-1.55,5.33-6.79,13.31-10.68,21.92-10.68,10.64,0,20.49,6.2,25.11,15.79.71,1.47,2.23,2.41,3.83,2.36h.45c15.36-.01,27.85,12.48,27.85,27.84s-12.49,27.85-27.85,27.85Z"/>
        </g>
        <g class="cls-21">
          <path class="cls-5" d="M769.58,238.73c-6.4-11.13-18.46-18.19-31.4-18.19-9.03,0-17.54,3.3-24.12,9.21-6.48-10.7-18.04-17.34-30.91-17.34-3.45,0-6.83.48-10.11,1.44-6.7-9.84-17.87-15.82-29.92-15.82-.25,0-.51,0-.76,0-2.47-11.77-11.34-21.12-22.88-24.24,1.11-3.69,1.67-7.52,1.67-11.43,0-22.02-17.91-39.93-39.93-39.93-.77,0-1.55.02-2.37.08-.26-.05-.52-.08-.8-.08h-.24c-4.3-15.52-18.44-26.45-34.86-26.45-10.68,0-20.75,4.72-27.6,12.79-4.37-1.81-9.1-2.76-13.86-2.76-.6,0-1.22.02-1.85.05-6.72-9.68-17.89-15.6-29.75-15.6-2.46,0-4.9.25-7.3.74-5.79-12.89-18.6-21.31-32.99-21.31-6.9,0-13.51,1.91-19.28,5.56-5.13-2.66-10.83-4.05-16.64-4.05-5.28,0-10.47,1.15-15.22,3.36-6.83-7.71-16.72-12.22-27.1-12.22-19.95,0-36.19,16.23-36.19,36.19,0,10.72,4.77,20.52,12.39,27.21-13.01,2.8-23.57,12.6-27.18,25.64h-.24c-.27,0-.54.03-.8.08-.82-.05-1.6-.08-2.37-.08-22.02,0-39.93,17.91-39.93,39.93,0,3.91.56,7.74,1.67,11.43-11.54,3.12-20.42,12.47-22.88,24.24-.26,0-.51,0-.76,0-12.05,0-23.21,5.98-29.92,15.82-3.28-.96-6.66-1.44-10.11-1.44-12.87,0-24.43,6.64-30.91,17.34-6.58-5.91-15.09-9.21-24.12-9.21-12.94,0-25,7.06-31.4,18.19-19.02,1.05-34.18,16.85-34.18,36.13s16.23,36.19,36.19,36.19c12.94,0,24.99-7.06,31.4-18.19,2.93-.16,5.81-.67,8.6-1.53,6.85,8.49,17.15,13.47,28.17,13.47,15.63,0,29.49-10.11,34.35-24.81,17.13-8.74,21.12-9.55,21.95-9.58,17.75,0,285.32-37.5,296.7-39.1,1.75-.24,3.1-1.55,3.48-3.21,54.23,7.24,100.77,13.17,107.83,13.17.82.04,4.82.85,21.95,9.58,4.86,14.7,18.73,24.81,34.35,24.81,11.02,0,21.32-4.98,28.17-13.47,2.79.86,5.67,1.37,8.6,1.53,6.4,11.13,18.46,18.19,31.4,18.19,19.95,0,36.19-16.23,36.19-36.19s-15.16-35.09-34.18-36.13ZM767.57,302.71c-10.64,0-20.49-6.2-25.11-15.79-.7-1.44-2.16-2.36-3.76-2.36-.02,0-.05,0-.07,0h-.45c-3.64.01-7.19-.68-10.55-2.06-1.84-.75-3.95-.11-5.05,1.54-5.19,7.77-13.85,12.41-23.18,12.41-12.51,0-23.56-8.42-26.86-20.48-.31-1.13-1.08-2.07-2.11-2.61-19.38-9.97-24.68-11.31-27.31-11.31-6.28,0-48.41-5.32-101.49-12.39l-27.87,4.67c.25.03.5.07.75.1-99.4,13.89-266.42,36.76-279.44,36.76-2.63,0-7.93,1.34-27.31,11.31-1.04.53-1.81,1.48-2.11,2.61-3.3,12.06-14.35,20.48-26.86,20.48-9.33,0-17.99-4.64-23.18-12.41-1.1-1.65-3.21-2.29-5.05-1.54-3.36,1.38-6.91,2.07-10.55,2.07h-.45s-.05-.01-.07-.01c-1.6,0-3.06.92-3.76,2.36-4.62,9.59-14.47,15.79-25.11,15.79-15.36,0-27.85-12.49-27.85-27.85s12.49-27.85,27.85-27.85h.45c1.59.07,3.12-.88,3.83-2.35,4.62-9.59,14.47-15.79,25.11-15.79,8.6,0,16.59,3.89,21.92,10.68.92,1.18,2.41,1.77,3.89,1.55,1.48-.22,2.73-1.22,3.27-2.61,4.2-10.78,14.39-17.75,25.95-17.75,3.57,0,7.05.67,10.36,2,1.96.79,4.2-.02,5.21-1.87,4.89-8.95,14.26-14.51,24.45-14.51,1.22,0,2.49.09,3.77.26,1.14.16,2.29-.17,3.18-.89.89-.72,1.45-1.78,1.54-2.92.88-11.43,9.8-20.55,21.2-21.68,1.33-.13,2.52-.9,3.2-2.06.67-1.16.75-2.57.2-3.8-1.83-4.08-2.76-8.43-2.76-12.92,0-17.42,14.17-31.59,31.59-31.59.88,0,1.79.04,2.8.13.5.04.99,0,1.46-.13h2.46c2.02,0,3.76-1.45,4.11-3.45,2.34-13.33,13.87-23.01,27.42-23.01.79,0,1.57.05,2.35.11l1-10.11c-9-4.68-15.08-14.12-15.08-24.73,0-15.36,12.49-27.85,27.85-27.85,8.93,0,17.38,4.34,22.61,11.6,1.26,1.75,3.65,2.25,5.51,1.15,4.29-2.55,9.2-3.89,14.2-3.89s10.26,1.44,14.65,4.17c1.45.9,3.31.82,4.68-.2,4.82-3.58,10.56-5.48,16.59-5.48,12.1,0,22.74,7.73,26.49,19.23.71,2.19,3.06,3.38,5.24,2.68,2.77-.89,5.65-1.35,8.56-1.35,9.82,0,19.02,5.27,24.02,13.75.84,1.43,2.46,2.22,4.11,2.02,1.21-.15,2.35-.22,3.48-.22,4.59,0,9.13,1.14,13.15,3.3,1.87,1,4.19.44,5.4-1.3,5.21-7.53,13.78-12.03,22.91-12.03,13.55,0,25.08,9.68,27.42,23.01.35,1.99,2.08,3.45,4.11,3.45h2.46c.47.13.97.17,1.46.13,1.01-.09,1.93-.13,2.8-.13,17.42,0,31.59,14.17,31.59,31.59,0,4.49-.93,8.83-2.76,12.92-.55,1.22-.48,2.64.2,3.8.67,1.16,1.86,1.93,3.2,2.06,11.4,1.13,20.32,10.25,21.2,21.68.09,1.14.64,2.2,1.54,2.92.89.72,2.04,1.05,3.18.89,1.29-.17,2.55-.26,3.77-.26,10.19,0,19.56,5.56,24.45,14.51,1.01,1.85,3.25,2.66,5.21,1.87,3.31-1.33,6.79-2,10.36-2,11.56,0,21.75,6.97,25.95,17.75.54,1.4,1.79,2.39,3.27,2.61,1.48.22,2.96-.37,3.89-1.55,5.33-6.79,13.31-10.68,21.92-10.68,10.64,0,20.49,6.2,25.11,15.79.71,1.47,2.23,2.41,3.83,2.36h.45c15.36-.01,27.85,12.48,27.85,27.84s-12.49,27.85-27.85,27.85Z"/>
        </g>
      </g>
    </g>
    <g>
      <g>
        <polygon class="cls-4" points="640.57 240.26 623.62 236.31 609.86 225.22 589.59 216.02 568.85 207.62 558.7 200.02 540.87 194.78 528.95 195.69 515.65 176.89 506.94 170.01 496.85 175.06 485.84 173.68 473 182.85 453.28 188.81 400.55 187.44 384.06 191.23 367.04 198.32 340.58 200.72 317.03 214.38 284 219.98 257.02 236.56 228.96 243.82 197.89 255.06 655.06 255.06 667.67 255.23 640.57 240.26"/>
        <polygon class="cls-18" points="443.8 224.56 432.53 214.73 420.37 217.44 424.77 232.46 452.16 241.35 443.8 224.56"/>
        <polygon class="cls-18" points="521.57 230.3 507.53 208.05 497.49 205.69 492.32 204.85 489.25 211.92 509.28 234.67 522.37 240.08 521.57 230.3"/>
        <polygon class="cls-3" points="577.71 219.64 567.58 214.01 544.31 201.89 536.61 200.96 536.55 203.75 565.17 221.28 583.11 227.82 577.71 219.64"/>
        <polygon class="cls-17" points="482.31 211.58 474.31 209.36 470.07 213.64 479.75 223.15 500.95 238.75 482.31 211.58"/>
        <polygon class="cls-17" points="562.36 228.81 531.9 207.07 525.4 203.41 518.76 203.5 518.46 214.35 542.99 223.83 568.63 243.85 562.36 228.81"/>
        <polygon class="cls-18" points="460.05 212.96 455.45 211.46 449.79 215.16 459.53 231.33 463.92 234.96 483.11 241.49 472.61 227.86 460.05 212.96"/>
        <polygon class="cls-17" points="405.05 214.38 401.23 212.62 395.96 215.25 402.76 230.22 406.19 233.8 414.02 237.93 414.42 228.53 405.05 214.38"/>
        <polygon class="cls-10" points="528.95 195.69 528.95 195.69 515.65 176.89 506.94 170.01 496.85 175.06 485.84 173.68 473 182.85 453.28 188.81 400.55 187.44 384.06 191.23 367.04 198.32 340.58 200.72 317.03 214.38 284 219.98 257.02 236.56 290.73 231.11 310.36 224.05 325.78 224.05 339.35 214.38 352.93 207.63 367.79 211.46 381.3 206.72 394.76 204.44 406.65 209.25 414.89 205.38 427.44 208.96 433.89 204.83 441.49 205.92 448.21 203.46 461.55 205.32 470.8 201.17 480.22 203.09 491.38 199.42 501.23 201.74 512.37 199.31 518.21 196.7 528.95 195.69 528.95 195.69"/>
        <polygon class="cls-19" points="512.55 178.74 508.05 175.2 501.95 177.86 507.58 185.54 522.46 194.77 512.55 178.74"/>
        <polygon class="cls-19" points="498.94 186.84 497.8 178.52 487.49 176.67 490.76 187.34 501.85 199.85 498.94 186.84"/>
        <polygon class="cls-19" points="410.66 195.96 409.95 192.13 403.54 191.28 405.57 196.19 412.47 201.96 410.66 195.96"/>
        <polygon class="cls-19" points="477.75 191.26 478.3 185.36 467.48 189.71 481.01 198.32 477.75 191.26"/>
        <polygon class="cls-19" points="449.94 192.95 467.2 199.84 461.95 191.23 458.01 192.3 449.94 192.95"/>
        <polygon class="cls-19" points="427.79 200.96 426.32 191.59 416.35 190.79 427.79 200.96"/>
        <polygon class="cls-19" points="444.38 192.68 435.34 191.47 439.64 201.81 444.38 192.68"/>
        <polygon class="cls-17" points="612.62 233.52 605.12 226.84 588.61 221.24 590.93 232.91 619.3 241.84 612.62 233.52"/>
      </g>
      <polygon class="cls-19" points="844.55 318.19 770.71 287.37 741.74 275.72 727.95 271.13 706.5 262.44 667.67 258.78 416.95 257.29 193.15 256.44 169.63 261.5 161.55 262.45 141.7 266.21 115.45 275.14 36.5 327.66 120.64 327.66 844.55 318.19"/>
      <polygon class="cls-9" points="626.53 252.33 613.71 248.52 601.69 246.32 589.47 249.73 579.05 246.92 567.71 248.45 559.84 247.08 549.57 249.48 536.67 247.3 521.98 248.84 510.87 246.15 497.89 249.91 482.52 247.69 473.71 251.14 460.2 246.15 450.11 249.77 439.89 248.83 430.79 251.32 418.84 250.25 403.27 243.82 394.47 247.37 383.11 251.05 383.8 269.07 407.36 264.46 417.78 267.67 436.21 263.06 456.04 266.07 471.47 261.26 490.76 263.12 507.32 260.93 522.21 263.1 538.15 262.22 554.91 265.74 580.37 261.51 609.28 264.37 626.36 261.65 637.09 263.38 652.08 260.54 660.91 262.91 667.22 261.02 680.22 262.91 688.97 260.64 703.98 262.68 696.96 257.78 690.17 255.67 683.54 253.86 677.36 255.22 666.57 252.21 660.19 253.13 652.38 250.73 643.36 252.93 634.15 250.53 626.53 252.33"/>
      <path class="cls-4" d="M526.84,148.32c-.39-.29-1.32.02-1.93.32.79-1.29.87-2.75.43-3.02-.86-.53-3.1,1.04-4.36,2.67-.34.44-.71,1.03-.97,1.69-1.8-2.7-4.73-3.42-7.32-2.37-2.79,1.13-4.13,3.24-3.79,5.69-.45-.53-1.23-1.1-1.93-1.39-1.32-.54-3.01-.66-3.43.04-.3.51.32,1.85,1.5,2.55-.66.15-2.01.7-1.97,1.46.04.79,1.7,1.23,2.85,1.27-.23.22-.67.7-.62,1.07.09.68,2.02,1.02,3.21.67.66-.19,1.55-.89,1.86-1.41.34.63,1.03,1.45,1.66,1.62-.01.29.13.59.44.89.21.21.53.18.66.11.05-.03.08-.08.1-.14.12.07.3.14.45.19-.01.02-.03.03-.04.05-.12.23.2,1.06.86,1.02.19-.01.62-.38.67-.62.02-.11.03-.22.02-.33.14-.02.29-.06.44-.11.5.84,2.09,2.17,2.65,1.93.62-.26.88-2.16.73-2.93.62-.55,1.26-1.39,1.41-2.07.31-.15.65-1.28.78-1.83,3.06,1.14,5.93-2.21,5.78-3.19-.07-.42-.76-.57-1.34-.49,1.23-1.19,1.83-2.86,1.16-3.34Z"/>
      <polygon class="cls-19" points="388.59 193.19 397.32 191.84 401.31 203.28 392.98 200.96 388.59 193.19"/>
      <polygon class="cls-19" points="383.94 193.93 374.28 197.56 378.8 201.81 390.05 204.08 383.94 193.93"/>
      <polygon class="cls-19" points="369.51 199 365.71 199.85 360.58 206.77 367.92 209.36 369.51 199"/>
      <path class="cls-19" d="M360.58,200.96l-5.26,5.32s-4.77-5.02-4.4-5.32,9.66,0,9.66,0Z"/>
      <polygon class="cls-19" points="348.16 201.81 341.48 202.48 341.8 210.33 348.07 205.15 348.16 201.81"/>
      <path class="cls-19" d="M338.91,203.55l-2.51,9.07-4.62,4.49s1.85-10.89,2.15-11.04,4.98-2.52,4.98-2.52Z"/>
      <path class="cls-19" d="M328.33,210.1l-2.43,12.36s-2.35-10.08-2.06-10.07,4.48-2.29,4.48-2.29Z"/>
      <polygon class="cls-19" points="317.4 217.11 310.91 222.46 310.91 217.9 317.4 217.11"/>
      <polygon class="cls-19" points="304.55 218.15 298.56 227.2 296.36 222.46 304.55 218.15"/>
      <polygon class="cls-19" points="282.79 231.27 285.17 222.46 290.93 221.53 282.79 231.27"/>
      <polygon class="cls-18" points="374.92 229.8 379.27 217.23 389.95 213.53 393.24 226.71 375.93 246.16 374.92 229.8"/>
      <polygon class="cls-18" points="303.06 241.24 312.08 229.7 318.53 228.47 321.85 228.04 323.82 231.71 310.95 243.5 302.55 246.31 303.06 241.24"/>
      <polygon class="cls-3" points="261.56 241.12 271.18 238.71 293.15 233.79 299.91 234.53 299.49 236.68 272.02 244.74 255.55 246.38 261.56 241.12"/>
      <polygon class="cls-17" points="337.58 222 343.26 220.11 346.28 223.77 339.4 231.9 324.36 245.24 337.58 222"/>
      <polygon class="cls-18" points="362.1 218.07 366.58 215.21 373.22 215.62 366.34 230.9 362.5 235.2 343.82 247.33 352.02 233.55 362.1 218.07"/>
      <polygon class="cls-9" points="398.49 269.31 372.52 263.66 355.97 261.67 341.08 263.65 325.14 262.84 308.37 266.04 282.92 262.2 254 264.8 236.92 262.32 226.2 263.9 211.21 261.32 202.37 263.47 196.06 261.75 183.06 263.47 174.32 261.41 159.31 263.26 166.33 258.81 173.11 256.89 179.75 255.24 185.93 256.48 196.72 253.74 203.1 254.58 210.91 252.4 219.93 254.4 229.14 252.21 236.75 253.85 249.58 250.39 261.6 248.39 273.82 251.49 284.23 248.94 295.58 250.33 303.45 249.08 313.72 251.26 326.61 249.28 341.3 250.68 352.41 248.24 365.39 251.65 380.77 249.63 389.58 252.77 395.96 251.05 398.49 269.31"/>
      <polygon class="cls-17" points="236.18 246.75 240.99 243.28 251.6 240.38 250.1 246.43 231.88 251.06 236.18 246.75"/>
      <g>
        <path class="cls-4" d="M484.22,124.73c-3.97-1.19-11.83.29-11.85-.14-.02-.43,6.43-3.94,7.78-4.16,1.35-.22,6.01.82,6.13.19.13-.63-1.43-3.82-.85-3.79.59.04,3.22,3.77,3.91,4.23.69.46,6.32.27,5.58-.9-.75-1.17-11.9-16.35-23.73-11.21-1.88.82-4.57,3.09-5.06,2.8-.49-.29-1.09-4.67-1.76-6.68-2.86-8.65-22.55-11.89-22.9-9.67-.35,2.22,7.65,10.63,7.91,12.21s-.09,4.33-.38,4.42-3.33-4.26-4.78-6.16c-4.78-6.26-9.92-7.86-18.2,1.17-8.27,9.03-1.83,7.01.91,6.77,2.74-.24,5.95-.88,7.08-.14s1.03.99,2.37,3.55c-4.11-.31-7.73.84-10.78,2.77-5.98,3.8-15.79,16.62-12.3,15.91,3.48-.71,14.45-4.38,17.15-4.36,3.79.02,10.15,1.6,10.36,2.47.15.62-4.7,1.25-6.91,2.91-7.36,5.48-5.48,16.42-4.77,16.44.71.01,4.1-2.71,4.54-3.43.44-.72-.03-4.45.56-4.57.59-.12,1.05,3.06,1.96,2.67.9-.38,2.58-1.91,3.92-2.12.76-.12,4.61,0,7.81.11-8.29,14.14-17.66,95.89-13.62,131.41,1.68,2.25,9.57,2.3,10.9.08-5.4-35.63.62-115.46,6.97-129.08.07,8.55,12.5,12.38,13.17,11.96.72-.46-1.38-8.75-.6-9.28.78-.52,2.87.67,4.18,1.5,1.31.83,12.72,8.24,13.81,7.57,1.09-.67.7-11.07-1.41-14.85-1.15-2.06-4.73-4.67-4.72-5.12s4.62-1.85,5.45-1.75c.83.11,5.45,3.44,6.18,3.44.73,0,2.33-1.01,2.91-.67.58.33.41,2.17.7,2.68.29.51,3.73,2.74,4.25,2.36.51-.38.89-17.73-11.85-21.53Z"/>
        <path class="cls-4" d="M439.89,172.6c-1.54-6.68-4.49-7.33-8.54-5.6-1.23.53-3.91,1.81-4.03,1.68s.48-1.56,1.04-2.26c.56-.7,6.78-2.59,7.23-3.76.44-1.18-10.04-5.03-13.83-1.61-.88.8-2.38,2.77-2.7,2.77-.32,0-1-1.85-1.69-2.76-4.34-5.77-13.97-1.46-14.66-1.09-.69.37,2,2.01,2.47,1.98.46-.03,4.06,1.75,4.66,2.23s2.77,3.97,2.64,4.17c-.13.2-3.55-2.69-5.81-3.2-7.26-1.66-11.87,6.9-11.72,7.22.15.33,2.44.19,2.72.02.28-.17.71-1.11,1.08-1.11.37,0,.87.93,1.23,1.13.36.2,3.53-.15,3.96.03.43.18,3.35,3.36,4.56,5.45-1.55-.67-3.97-.63-6.62,2.21-2.12,2.28-2.36,7.54-1.87,8.07.49.52,3.49-2.43,7.96-3.37,3.72-.79,7.41-.51,6.64,1.93-7.63,24.32-4.43,76.85-2.52,100.3.23,1.87,7.87,7.89,8.84,5.88-2.4-10.44-6.91-94.06-3.19-102.36,2.88-7.01,9.52-5.92,11.53-4.79,2.01,1.12,5.31,3.33,6.33,3.91,1.05.49,2.45-11.75-3.56-14.96,1.36-.88,1.38-1.03,2.13-1.08.75-.05,2.14,1.15,3.41,2.03,1.27.87,3.85,3.63,2.31-3.05Z"/>
        <path class="cls-4" d="M293.52,178.27c1.2-5.23,3.51-5.73,6.68-4.38.96.41,3.06,1.41,3.15,1.32s-.37-1.22-.81-1.77c-.44-.55-5.31-2.02-5.65-2.94-.35-.92,7.85-3.94,10.81-1.26.69.62,1.86,2.16,2.11,2.17.25,0,.79-1.44,1.32-2.16,3.39-4.51,10.92-1.14,11.46-.85.54.29-1.57,1.57-1.93,1.55-.36-.03-3.18,1.37-3.64,1.74s-2.17,3.1-2.07,3.26c.1.16,2.78-2.1,4.55-2.51,5.67-1.3,9.28,5.39,9.16,5.65-.11.25-1.91.15-2.13.02-.22-.13-.55-.87-.84-.87-.29,0-.68.73-.96.88-.28.16-2.76-.11-3.1.03-.34.14-2.62,2.63-3.57,4.26,1.21-.52,3.11-.49,5.17,1.73,1.66,1.78,1.84,5.9,1.46,6.31-.38.41-2.73-1.9-6.22-2.64-2.91-.62-5.79-.4-5.19,1.51,5.97,19.02,3.47,60.09,1.97,78.43-.18,1.46-6.16,6.17-6.91,4.59,1.88-8.16,5.4-73.55,2.49-80.04-2.25-5.48-7.45-4.63-9.02-3.75s-4.15,2.6-4.95,3.06c-.82.39-1.92-9.19,2.78-11.7-1.06-.69-1.08-.81-1.67-.84-.59-.04-1.68.9-2.67,1.58-.99.68-3.01,2.84-1.81-2.39Z"/>
      </g>
      <g>
        <path class="cls-7" d="M529.76,281.18c-4.09-.78-6.54-1.67-7.82-3.27-.09-1.87.55-4.05,2.11-7.74,1.43-3.37,4.11-8.76,4.05-10.15-.05-1.01-.6-1.98-1.48-2.44-.5-.26-.98-.1-1.28.36-.06-.31-.18-.56-.36-.78-.28-.33-.62-.58-1.08-.87-.02-.15-.04-.3-.08-.42-.35-1.08-4.55-2.25-5.66-1.62-.34.19-.73.75-1.1,1.52-.02-.37-.1-.67-.22-.89-.32-.62-2.55-.39-2.8.6-1.26,4.86-3.06,9.81-4.99,13.99.39-2.81.89-5.05,1.6-7.22.28-.86.09-1.64-.6-2.16-1.02-.77-1.79-1.09-2.5-1.05-.15-.35-.42-.65-.82-.89-.21-.13-.44-.25-.68-.37.36-3.52.28-5.93-.15-7.12-.12-.33-.32-.74-.57-1.21.13-.56.06-1.14-.17-1.55-.3-.54-.87-.87-1.44-1.01-1.73-2.5-4.04-5.29-5.52-6.37.01-.38.04-.68.14-.92.91.57,1.74.28,1.86-.92.23-2.25-1.01-4.88-1.93-4.97-.84-.09-2.95,2.47-3.34,4.56-.23,1.26.37,1.63,1.52,1.27-.03.22-.06.45-.09.7-1.74.6-5.27,2.55-8.1,5.34-.31.08-.66.24-.95.45-.57.42-.76,1.05-.74,1.45-1.03,1.34-1.84,2.81-2.22,4.38-.19.78-.33,2.5-.37,4.47-.18.14-.31.31-.4.49-.46.01-.87.03-1.32.06-.68.05-1.07.36-1.33.94-.04-.39-.09-.68-.17-.83-.34-.67-3.38-1.33-3.99.65-.4,1.29-.56,5.5-1.47,12.18-.17,1.23-.36,2.32-.59,3.3-2.14-4.05-4.09-13.16-4.46-17.5-.1-1.19-.76-1.82-1.54-1.86-.8-.03-1.08.33-1.03.98.08,1.01.2,2.11.37,3.44-.2.1-.38.18-.57.24-.22-.78-.36-1.69-.38-2.5-.02-.82-.36-1.2-1.51-1.4,0-.02-.02-.05-.03-.07-.23-.58-.59-.78-1.32-.69-1.35.16-2.51.5-3.71,1.08-.63.3-.88.72-.85,1.63,0,.19.01.42.03.68-.31-.05-.6-.11-.88-.17-.04-.32-.1-.58-.2-.78-.23-.42-1.66-.39-1.88.31-1.64,5.19,2.31,18.04,5.84,23.22-3.57,1.05-6.4,1.99-9.25,3.07-1.3.49-1.2,1.23,0,1.51,1.64.38,3.1.55,5.19.67-.88.82-.6,1.96.78,2.39,1.75.55,4.33.67,8.27.46.43-.02.61.08.92.58,2.05,3.26,9.89,3.01,17.03,1.08,2.03-.55,4.08-.5,6.51.13,8.27,2.14,10.37,2.58,16.92-1.31,2.69-1.6,5.8-2.23,8.79-1.77,3.82.58,6.31.1,7.94-1.66.78-.84,2.04-1.27,3.69-1.29,2.21-.03,3.54-.31,3.61-1.05.03-.33-.2-.75-3.23-1.33ZM493.57,272.7c-1.14.08-2.35.09-3.44.03-.56-.03-.68-.17-.71-.6-.07-1.04.32-2.84.73-3.9.46-1.2,2.09-1.6,3.14-.98.4,1.38.51,3.18.28,5.46Z"/>
        <path class="cls-13" d="M558,297.9c.15-.49,3.13-9.25,3.44-10.19.96-.34,10.08-3.61,10.39-3.77.66-.33.55-1.19.24-1.36l-.27-.18c-1.82-1.32-6.79-4.02-9.15-5.29-.03-.06-.06-.12-.09-.19.13-.16.17-.61.13-1.28l-.02-.29c0-.4-.69-1.04-.95-1.26-.25-.2-.98-.14-1.58-.03-1.45-2.7-3.37-6.28-3.52-6.46-.42-.51-.95-.17-1.21.05-.23.2-1.47,2.85-2.41,4.85-.05.03-.09.06-.12.09-.13.13-.56.96-.56,1.36-.03.07-.06.13-.09.19-.26.15-.52.31-.76.49-.05,0-.09,0-.14,0-.64-.08-1.25-.08-1.5.07-3.05.14-8.43.4-11.28.64,0,0-.77.34-.26.8,2.04,1.83,7.78,6.03,8.66,6.66,0,.32-.01.59.09.78-2.06,2.21-7.63,8.08-7.73,8.37-.09.24-.17.71.05.97.12.14.56.3.76.27,3.14-.5,9.68-2.49,11.31-3,0,.06.01.1.05.11.2.08.97.38,1.31.44,0,0,.03-.02.09-.08.7,1.48,3.23,6.68,3.6,7.3.35.59,1.29.7,1.53-.07Z"/>
        <path class="cls-13" d="M341.08,288.59c.12-.38,2.43-7.2,2.68-7.94.74-.26,7.85-2.81,8.09-2.93.51-.26.43-.93.19-1.06l-.21-.14c-1.42-1.03-5.29-3.13-7.12-4.12-.02-.05-.05-.1-.07-.14.1-.13.13-.48.1-1v-.23c-.01-.31-.55-.81-.75-.98-.19-.16-.76-.11-1.23-.02-1.13-2.1-2.62-4.89-2.74-5.03-.33-.39-.74-.13-.94.04-.18.16-1.15,2.22-1.88,3.77-.04.02-.07.04-.09.07-.1.11-.44.75-.43,1.06-.02.05-.05.1-.07.15-.21.11-.4.24-.59.38-.04,0-.07,0-.11,0-.5-.06-.97-.06-1.17.05-2.37.11-6.56.31-8.78.5,0,0-.6.27-.2.62,1.59,1.42,6.06,4.69,6.74,5.19,0,.25,0,.46.07.61-1.61,1.72-5.94,6.29-6.02,6.52-.07.19-.13.55.04.76.09.11.44.23.59.21,2.44-.39,7.54-1.94,8.81-2.33,0,.05,0,.07.04.09.15.06.76.3,1.02.34,0,0,.03-.01.07-.06.55,1.15,2.51,5.2,2.8,5.68.27.46,1.01.55,1.19-.06Z"/>
        <path class="cls-14" d="M463.28,208.08c.24-.29.34-.58.31-.97-.03-.42-.18-1.08-.28-1.55-.12-.58-.47-.63-.89-.26-5.11,4.56-11.05,12.14-14.66,18.09.69-2.03,1.04-4.19,1.3-6.7.46-.08,1.05-1.15,1.02-2.09-.05-1.31-.74-2.19-1.2-2.17-.47.02-.91,1.19-.86,2.27.04.93.49,1.69.81,1.92-.34,3.14-.84,5.69-1.89,8.17-.25.44-.48.86-.7,1.27-.34-.25-.73-.46-1.17-.61-.01-2.99-.5-7.67-1.24-10.07.46-.3.63-1.68.4-2.53-.31-1.17-1.3-2.05-1.87-1.88-.54.17-.63,1.64-.4,2.43.34,1.16,1.15,1.97,1.62,2.04.66,2.31,1.16,6.96,1.24,9.94-.03,0-.05-.02-.08-.02-1.47-.37-2.87.03-3.87.83-2.44-8.3-8.84-22.07-15.9-28.47-.36-.33-.71-.32-1.08.04-.51.48-1.25,1.19-1.73,1.73-.36.4-.33.7-.1,1.01.43.6,1.24,1.71,1.86,2.47.15.18.16.26-.02.46-.52.56-.99,1.07-1.65,1.77-.32.34-.5.9.1,1.55.7.75,1.4,1.52,2.1,2.3-2.91.18-7.15,2.41-8.61,6.39-1.54,4.19-.29,9.05,1.71,11.93,1,1.44,2.08,2.31,4.72,2.89,1.94.43,4.03.85,6.14,1.25-2.72-.14-4.82-.14-6.38.17-1.62.32-2.8,1.78-2.89,4.43-.15,4.55,4.38,10.95,8.43,11.9,1.97.46,3.44.16,4.92-1.09,2.68-2.27,4.9-4.85,7.08-8.2,0,1.6.62,2.94,1.82,3.91.09.07.17.07.25,0,.12-.1.24-.21.36-.33-.04,1.37,0,3.27.19,5.47.16,1.78,1.65,2.46,3,2.14,5-1.2,9.55-8.78,9.9-11.67.17-1.4-.26-2.46-1.4-2.9-1.21-.46-2.15-.76-3.22-1.02.16,0,.32,0,.49,0,4.52-.03,5.17-.48,6.95-1.81,2.79-2.09,4.88-6.81,5.25-9.8.33-2.73.3-5.12-3.35-8.17.68-.64,1.19-1.08,1.92-1.69.34-.29.53-.45.49-.92-.07-.63-.12-1.08-.21-1.71-.05-.31.06-.62.32-.95.31-.39.78-.96.97-1.19Z"/>
      </g>
    </g>
    <path class="cls-1" d="M1537.37,325.48c-3.74-9.2-10.84-16.38-19.99-20.24-5.13-2.16-10.54-3.13-16.07-2.89-1.51.07-2.98-.51-4.04-1.59-1.06-1.08-1.62-2.55-1.53-4.06.99-16.8-8.76-32.47-24.27-39.01-18.08-7.62-39.35-.73-49.48,16.03-1.39,2.3-4.27,3.21-6.73,2.12l-.73-.33c-8.63-3.64-18.32-4.1-27.28-1.31-2.52.79-5.23-.38-6.39-2.75-4.22-8.62-11.42-15.41-20.25-19.14-.86-.36-1.82-.72-2.94-1.09-1.64-.55-2.92-1.86-3.42-3.52-3.45-11.37-11.7-20.53-22.63-25.14-10.05-4.24-21.11-4.19-31.16.12-2.35,1.01-5.09.21-6.52-1.9-4.31-6.34-10.33-11.27-17.41-14.25-18.23-7.68-39.57-.67-49.64,16.32-1.05,1.76-3.01,2.77-5.04,2.6-7.87-.66-15.71,1.02-22.66,4.88-2.34,1.29-5.28.67-6.88-1.49-4.22-5.68-9.91-10.14-16.45-12.9-20.22-8.52-43.6.99-52.12,21.21-8.52,20.22.99,43.6,21.21,52.12,11.33,4.77,24,4.08,34.78-1.89,2.34-1.3,5.28-.66,6.88,1.49,4.22,5.68,9.91,10.14,16.45,12.9,15.03,6.33,32.18,2.95,43.69-8.63,1.56-1.57,3.92-2.01,5.95-1.12,2.02.89,3.29,2.94,3.18,5.15-.81,16.63,8.95,32.15,24.3,38.62,10.82,4.56,23.04,4.11,33.52-1.22,1.47-.75,3.21-.78,4.7-.07,1.49.7,2.58,2.06,2.94,3.67.15.68.33,1.36.52,2.03h218.27c.09-4.97-.81-9.96-2.75-14.7Z"/>
    <g>
      <path class="cls-16" d="M1321.33,338.16c-.36-1.61-1.44-2.97-2.94-3.67-1.49-.7-3.23-.68-4.7.07-10.48,5.34-22.7,5.78-33.52,1.22-15.35-6.47-25.11-21.99-24.3-38.62.11-2.21-1.16-4.26-3.18-5.15-2.02-.89-4.39-.45-5.95,1.12-11.51,11.58-28.66,14.97-43.69,8.63-6.54-2.76-12.23-7.22-16.45-12.9-1.6-2.15-4.54-2.78-6.88-1.49-10.78,5.98-23.45,6.67-34.78,1.89-20.22-8.52-29.73-31.9-21.21-52.12,8.52-20.22,31.9-29.73,52.12-21.21,6.54,2.76,12.23,7.22,16.45,12.9,1.6,2.15,4.54,2.78,6.88,1.49,6.95-3.86,14.79-5.54,22.66-4.88,2.04.18,4-.84,5.04-2.6,10.08-16.98,31.41-24,49.64-16.32,7.08,2.98,13.1,7.91,17.41,14.25,1.44,2.11,4.18,2.91,6.52,1.9,10.04-4.31,21.11-4.35,31.16-.12,10.93,4.61,19.18,13.77,22.63,25.14.5,1.66,1.78,2.97,3.42,3.52,1.12.37,2.08.73,2.94,1.09,8.83,3.73,16.03,10.52,20.25,19.14,1.16,2.37,3.87,3.53,6.39,2.75,8.95-2.79,18.65-2.33,27.28,1.31l.73.33c2.46,1.08,5.34.17,6.73-2.12,10.13-16.76,31.4-23.65,49.48-16.03,15.5,6.54,25.26,22.21,24.27,39.01-.09,1.51.47,2.99,1.53,4.06,1.06,1.08,2.53,1.65,4.04,1.59,5.53-.24,10.94.72,16.07,2.89,9.15,3.86,16.25,11.05,19.99,20.24,1.93,4.75,2.84,9.73,2.75,14.7h10.66c.25-18.91-10.78-37-29.25-44.79-4.87-2.05-9.93-3.27-15.1-3.64-.99-19.13-12.86-36.34-30.8-43.9-21.52-9.07-46.61-1.92-60.24,16.57-8.7-2.96-18.06-3.49-27.03-1.53-5.49-9.09-13.73-16.25-23.58-20.4-.37-.16-.76-.31-1.15-.46-4.79-13.21-14.81-23.79-27.83-29.28-11.44-4.82-23.91-5.28-35.54-1.37-5.2-6.4-11.88-11.43-19.54-14.66-22.1-9.32-47.82-1.59-61.21,17.94-7.39-.15-14.68,1.34-21.44,4.34-4.96-5.56-11.12-9.97-18.03-12.88-25.64-10.81-55.3,1.26-66.11,26.9-10.81,25.65,1.26,55.3,26.9,66.11,12.98,5.47,27.35,5.29,40.08-.38,4.96,5.56,11.12,9.97,18.03,12.88,15.66,6.6,33.13,4.89,46.95-4.07,2.24,13.12,9.65,24.89,20.48,32.64h55.51c-.19-.67-.36-1.34-.52-2.03Z"/>
      <path class="cls-2" d="M1321.33,338.16c-.36-1.61-1.44-2.97-2.94-3.67-1.49-.7-3.23-.68-4.7.07-10.48,5.34-22.7,5.78-33.52,1.22-15.35-6.47-25.11-21.99-24.3-38.62.11-2.21-1.16-4.26-3.18-5.15-2.02-.89-4.39-.45-5.95,1.12-11.51,11.58-28.66,14.97-43.69,8.63-6.54-2.76-12.23-7.22-16.45-12.9-1.6-2.15-4.54-2.78-6.88-1.49-10.78,5.98-23.45,6.67-34.78,1.89-20.22-8.52-29.73-31.9-21.21-52.12,8.52-20.22,31.9-29.73,52.12-21.21,6.54,2.76,12.23,7.22,16.45,12.9,1.6,2.15,4.54,2.78,6.88,1.49,6.95-3.86,14.79-5.54,22.66-4.88,2.04.18,4-.84,5.04-2.6,10.08-16.98,31.41-24,49.64-16.32,7.08,2.98,13.1,7.91,17.41,14.25,1.44,2.11,4.18,2.91,6.52,1.9,10.04-4.31,21.11-4.35,31.16-.12,10.93,4.61,19.18,13.77,22.63,25.14.5,1.66,1.78,2.97,3.42,3.52,1.12.37,2.08.73,2.94,1.09,8.83,3.73,16.03,10.52,20.25,19.14,1.16,2.37,3.87,3.53,6.39,2.75,8.95-2.79,18.65-2.33,27.28,1.31l.73.33c2.46,1.08,5.34.17,6.73-2.12,10.13-16.76,31.4-23.65,49.48-16.03,15.5,6.54,25.26,22.21,24.27,39.01-.09,1.51.47,2.99,1.53,4.06,1.06,1.08,2.53,1.65,4.04,1.59,5.53-.24,10.94.72,16.07,2.89,9.15,3.86,16.25,11.05,19.99,20.24,1.93,4.75,2.84,9.73,2.75,14.7h10.66c.25-18.91-10.78-37-29.25-44.79-4.87-2.05-9.93-3.27-15.1-3.64-.99-19.13-12.86-36.34-30.8-43.9-21.52-9.07-46.61-1.92-60.24,16.57-8.7-2.96-18.06-3.49-27.03-1.53-5.49-9.09-13.73-16.25-23.58-20.4-.37-.16-.76-.31-1.15-.46-4.79-13.21-14.81-23.79-27.83-29.28-11.44-4.82-23.91-5.28-35.54-1.37-5.2-6.4-11.88-11.43-19.54-14.66-22.1-9.32-47.82-1.59-61.21,17.94-7.39-.15-14.68,1.34-21.44,4.34-4.96-5.56-11.12-9.97-18.03-12.88-25.64-10.81-55.3,1.26-66.11,26.9-10.81,25.65,1.26,55.3,26.9,66.11,12.98,5.47,27.35,5.29,40.08-.38,4.96,5.56,11.12,9.97,18.03,12.88,15.66,6.6,33.13,4.89,46.95-4.07,2.24,13.12,9.65,24.89,20.48,32.64h55.51c-.19-.67-.36-1.34-.52-2.03Z"/>
    </g>
    <path class="cls-6" d="M1725.1,182.58c-5.65-16.44-25.32,24.37-27.68,4.79-.19-4.17-.41-33.96-20.23-38.15-8.91-1.88-9.83,4.75-9.17,6.46,4.2,10.88,3.75,69.95-58.3,87.57-11.19,3.18-24.39,7.95-39.92,7.91l9.23,49.08c97.62-1.39,142.26-26.66,142.26-26.66,0,0,12-67.17,3.81-91Z"/>
    <path class="cls-11" d="M762.29,288.5s27.71-33.67,129.02-26.54c120.48,8.47,230.08-.03,310.56-9.05,80.48-9.02,193.66-13.35,291.24-5.04,74.71,6.36,107.68,5.62,149.25-14.49,41.57-20.12,36.89-68.38,32.54-81.22-.58-1.72.7-3.54,2.31-3.23,17.55,3.35,23.34,30.75,23.51,34.92,5.45-8.67,3.23-20.2,1.44-26.28-.55-1.87,1.04-3.66,2.7-3.03,5.53,2.12,12.9,8.97,20.18,24.52,25.9,55.32-3.34,91-3.34,91,0,0-7.96,70.3-101.23,66.23-21.7-.94-47.63,3.52-75.01-2.62-5.81-1.3-37.69.73-43.79.33-46.5-3.08-105.16-3-173.78,2.05-68.75,5.05-162,0-162,0h-404.51v-38.15l.92-9.39"/>
    <path class="cls-6" d="M1585.09,268.84c-1.41-.42-1.06-2.47.4-2.42,16.07.6,51.09,5.19,82.49-13.52,42.43-25.28,41.59-73.81,41.59-73.81,0,0,3.39-4.02,3.9-12.45,7.08,30.91.32,60.13-16.82,83.31-.81,1.1.38,2.51,1.64,1.96,7.49-3.27,13.73-9.85,17.02-13.82.9-1.08,2.65-.23,2.36,1.14-1.29,6.07-7.45,16.1-33.71,27.58-45.28,19.78-82.73,6.89-98.87,2.03Z"/>
    <path class="cls-15" d="M1020.26,305.36c-42.19.2-75.73-13.73-99.94-23.18-3.26-1.37-6.48-2.58-9.68-3.68-5.67-2.06-10.68-3.62-15.03-4.36-.03,0-.05.02-.07.03-27.4-6.32-52.23-3.95-74.22-.8-2.48.36-2.39,3.91.11,4.16,35.21,3.55,63.44,16.15,85.45,27.3.12.2.21.31.25.3.72.3,1.43.58,2.15.87,6.61,3.12,12.69,4.9,18.2,6.15,5.9,1.6,11.66,2.78,17.27,3.61.03,0,.06.02.09.02.01,0,.02,0,.03,0,28.84,4.24,53.93-.81,75.93-6.37,2.38-.6,1.91-4.05-.55-4.04Z"/>
    <path class="cls-6" d="M1135.72,273.6c-24.38,2.06-50.2.47-61.93-.49-.69-.06-1.3-.06-1.88-.04-.03,0-.05,0-.08,0-11.49-.32-46.41-.53-66.2,9.86-1.22.64-.78,2.39.59,2.21,23.42-3.08,46.73-2.52,56.39-2.08.11,0,.2.02.31.03,1.2.09,2.66.17,4.32.22,0,0,.02,0,.02,0h.01c15.32.52,48.47-.55,68.97-7.33,1.4-.46.95-2.52-.52-2.39Z"/>
    <path class="cls-6" d="M1564.36,261.59c-17.92-1.19-36.47-5.19-44.88-7.18-.49-.12-.94-.19-1.36-.24-.02,0-.04,0-.06-.01-8.3-1.5-33.61-5.5-49.14-.14-.96.33-.83,1.65.18,1.67,17.34.35,34.19,3.33,41.14,4.71.08.02.14.04.22.06.86.2,1.91.41,3.11.64,0,0,.02,0,.02,0h0c11.05,2.07,35.23,4.95,50.86,2.29,1.07-.18.97-1.72-.11-1.79Z"/>
    <g>
      <path class="cls-6" d="M1626.4,259.15c-3.32-6.08-11.63-16.88-15.3-14.8-3.67,2.08,4.41,19.68,9.22,24.2l4.45-4.69c.75-1.94,4.95,1.37,1.63-4.71Z"/>
      <path class="cls-6" d="M1614.16,258.59c-6.33-2.92-11.94-4.19-12.17.58-.22,4.77,15.22,11.56,21.81,12.35l1.33-9.49c-.57-2-4.64-.52-10.98-3.44Z"/>
      <path class="cls-6" d="M1590.93,256.96c2.12-.24,6.69,3.22,6.74,4.75.06,1.54-2.82,2.54-5.49.27-2.67-2.26-3.38-4.78-1.26-5.02Z"/>
      <path class="cls-6" d="M1603.37,249.38c1.01-.54,3.29,1.23,3.36,2.35s-1.29,2.37-2.63,1.15c-1.34-1.22-1.74-2.96-.73-3.51Z"/>
      <path class="cls-6" d="M1657.68,242.3c-1.29-.85-4.12,1.05-4.16,2.48s1.71,3.23,3.36,1.89c1.65-1.34,2.1-3.51.8-4.36Z"/>
      <path class="cls-6" d="M1629.23,244.87c3.54-.29,10.21,15.61,4.14,23.82l-11.13-.94c-1.99-6.18,3.45-22.59,6.99-22.88Z"/>
      <path class="cls-6" d="M1656.21,250.48c3.19,1.54.69,18.57-8.78,22.56l-9.07-6.43c1.49-6.32,14.66-17.66,17.85-16.12Z"/>
      <path class="cls-6" d="M1642.74,266.68c3.75-7.02,8.51-21.12,4.8-23.75-3.71-2.62-12.13,11.27-15.43,16.66l-2.04,4.43c3.21,2.99,8.93,9.67,12.67,2.66Z"/>
    </g>
    <path class="cls-11" d="M345.93,223s-25.75,81.61-88.92,102.84l99.41-.5-2.19-98.9-6.69-7.43-1.61,3.99Z"/>
    <path class="cls-11" d="M351.68,223s42.07,54.38,146.54,71.36c104.46,16.98,270.23,24.47,270.23,24.47,0,0,57.16,40.18-297.66,40.16-86.44-1.17-135.14-48.8-135.14-48.8l16.03-87.19Z"/>
    <path class="cls-15" d="M387.93,259.76s28.1,49.87,93.1,65.43c.68.16.64,1.12-.05,1.23-23.51,3.53-87.4-3.99-102.03-19.78-15.27-16.49,8.98-46.87,8.98-46.87Z"/>
    <path class="cls-15" d="M465.81,299.85c-.78-.54-.17-1.75.73-1.46,7.93,2.56,25.17,7.62,48.58,11.57,25.69,4.34,47.37,7.57,55.34,8.45.92.1,1.01,1.41.11,1.62-7.08,1.69-27.66,3-53.95-1.04-26.2-4.03-43.42-14.03-50.81-19.14Z"/>
    <g>
      <path class="cls-8" d="M1620.33,171.4c-.05.59,0,1.34.11,2.27.16,1.4.18,2.49.07,3.3-3.91,2.38-7.31,6.78-9.12,13.6-5.24,1.34-9.52,3.37-11.15,5.3-.62.73-.36,1.62,1.19,1.66,3.37.09,6.15.23,8.87.51-.04,11.1,7.77,20.94,17.94,25.14-.15,1.22.28,2.37,1.29,2.91-.47,2.28.55,4.62,2.21,5.95.45.36.84.28,1.13-.3.17-.33.27-.64.35-1.06.1-.47.2-.63.61-.89,2.07-1.32,2.82-3.26,2.3-4.89,1.07.58,2.81.58,4.57-1.11.67-.65,1.56-1.15,2.76-1.42.82-.18.77-.7.1-.93-3.46-1.22-5.62-1.27-8.38-.14-.42-1.52-2.98-2.3-4.87-1.32-3.68-3.93-4.67-9.58-1.49-12.29,1.05-.89,1.94-1.69,2.63-2.32.18-.17.29-.17.59.01,1.54.95,3.43,2.57,4.3,3.61,1.08,1.29,1.81,1.95,2.72,2.57.9.61,1.48.43,1.55-.67.14-2.22-1.22-7-3.14-11.17-.2-.43-.34-.76-.44-1.05,6.4-5.73,6.81-17.39-2.39-22.25-2.34-1.24-5.01-1.79-7.71-1.56-1.11-1.77-2.8-3.64-4.76-4.61-1.18-.58-1.73-.16-1.84,1.15Z"/>
      <path class="cls-12" d="M1691.35,85.48c-3.18-8.88-9.15-18.59-15.71-26-7.26-8.2-15.55-14.03-23.8-16.96-.21-.07-.22-.07-.36.08-4.05,4.23-19.48,8.15-23.73,8.19.8-1.23,1.74-2.39,2.95-3.4,2.68-2.24,11.44-7.39,15.05-9.15,1.47-.72,2.69-.7,3.56-.48.85.51,1.85,1.29,3.14,2.43.19.17.24.13.35-.05,1.68-2.79-1.48-8.31-4.97-7.86-.72.09-1.41.73-2.18,1.47-3.13,3.02-6.77,3.74-8.6,2.9-.13-.06-.24-.11-.33-.13-1.65-1.95-3.65-5.24-9.13-4.77-5.68.49-6.72,4.52-8.47,7.44-1.36,2.27-3.27,3.66-6.04,4.06-1.78.26-3.82.27-6.36.78-12.01-7.36-20.1-15.75-26.12-30.27-.83-2-.92-2.21-3.69-3.75-12.88-7.16-33.93-9.17-45.28-9.75-16.16-.83-33.29.42-43.26,2.77-.53.12-.52.28.02.33,6.09.54,17.28,1.44,23.37,2.39-1.64.38-5.1,1.27-6.36,1.81-.42.18-.32.32.06.34,11.54.74,17.66,1.6,25.9,3.76-2.81.09-6.51.46-8.32.86-.5.11-.46.25,0,.31,5.78.67,15.48,3.14,19.32,4.39-2.33-.03-4.57.09-6.68.34-.52.06-.36.17-.01.31,6.68,2.57,16.52,6.14,25.25,11.1,15.47,8.77,21.9,19.01,22.17,27.37-1.39.88-3.09,1.57-5.02,2.08-6.21.26-16.34-2.11-22.3-5.49-.32-.18-.58-.18-.72,0-.12.16-.1.35.25.66,2.72,2.43,6.49,4.66,9.71,6.05-10.99-.22-23.6-2.73-31.58-5.33-.56-.18-.97-.11-1.07.18-.09.25.08.53.71.77,12.9,4.95,30.18,8.84,40.47,8.82.74.19,1.45.39,1.99.54-.05.04-.11.07-.16.11-.22.16-.15.21.07.29.3.12.6.3.65.84.07.63-.02.97-.45,1.48-1,1.19-3.69,4.26-4.95,5.52-.2-.12-.32-.42-.4-.68-.06-.21-.09-.22-.24-.11-.53.4-.94,1.45-.87,2.18.09.87.12.97.9,1.23.39.13.65.13.98,0-.11.38-.1.69.03,1.18.21.8.45.98,1.24,1.1.87.13,1.14.16,1.51-.25.17-.18.39-.47.58-.73.04.64.23,1.14.82,1.84.43.51.76.55,1.3.43.62-.14.97-.35,1.31-1.21.76-1.91,1.35-5.08,1.42-6.84.12,0,.24,0,.36,0,1.24-.06,2.62-.39,3.63-.76.22-.08.44-.18.65-.3,1.06.7,2.08,1.31,3.08,1.85-.38,1.23-.79,1.91-2,2.65-1.58.96-3.64,2.33-3.82,3.04-.11.43.22,1.54.69,1.78.26.14.62.1,1.12.04l.23.22c.01.44.02,1.2.3,1.57.18.23.92.21,1.39.12.13.34.36.75.96.69.47-.05,1.2-.2,1.57-.62.43-.48,1.01-1.39,1.51-2.21.32-.53.38-1.03.9-3.2.28.02.58.02.91,0,1.18-.07,3.47-.41,5.02-1.12,4.48.54,8.93-.42,14.27-2.37,2.82-1.03,5.09-2.53,6.98-4.33,4.98-1.7,16.13-4.08,22.03-4.15,9.87-.12,23.66,3.69,28.37,7.9.33.3.49.25.34-.19-.6-1.77-1.32-3.2-1.87-4.21,2.58,2.04,7.68,6.88,9.48,8.75.3.31.42.21.34-.16-.57-2.64-1.2-4.01-1.66-5.08,3.16,1.98,8.23,8.54,9.42,10.3.21.31.34.26.32-.11-.06-1.52-.55-3.84-.79-4.8,2.21,1.92,6.14,7.04,8.02,9.33.37.45.52.37.34-.14ZM1572.36,75.56c-.21-.07-.47-.23-.62-.44.3-.18.59-.4.8-.57.09.11.22.24.32.36-.14.22-.31.44-.51.65ZM1575.6,76.71s.01.1,0,.2c-.2-.09-.4-.21-.57-.33.27.04.55.09.58.13Z"/>
      <path class="cls-12" d="M1647.02,105.1c-2.17-.04-7.62-.8-9.94-2.1-.44-.25-.76-.42-1.09-1.19-.04-.09-.08-.2-.14-.33.69-.08,1.25-.24,1.64-.32.46.15.66.31.83.29.14-.02.35-.15.45-.34.15,0,.27.02.31.01.23-.03.48-.34.49-.72.03,0,.05-.01.08-.02.35-.08.47-.29.4-.73-.04-.3-.31-.61-.69-.82-.14-.07-.15-.04-.14.09.01.23,0,.41-.07.57-.08-.09-.17-.17-.27-.22-.15-.08-.16-.03-.14.1.02.12.04.3.03.42-.22.06-.47.13-.68.17-.29.06-.68.09-1.61.02-.42-.03-.6.17-.5.54-.08,0-.16.02-.23.02.48-.87,1-2.16,1.14-3.04.21-.13.4-.26.56-.38.39-.28.44-.3.61-.39,1.7-.87,5.47-2.85,6.11-3.54.12-.13.12-.2-.09-.17-2.02.3-6.02.84-7.24.89.87-1.15,2.18-3.32,2.61-4.62.06-.19,0-.21-.15-.08-3.36,2.77-4.17,3.27-6.64,4.62-.31.17-.33.17-.55.22-.54.12-1.1.27-1.68.44-.92-.41-3.47-1.73-4.32-2.27-.42-.27-.49-.39-.64-1.06-.72-3.05-1.03-5.59-1.01-7.95,0-.17-.06-.2-.16-.09-1.67,1.65-4.67,6.29-4.7,9.93,0,1.48.39,1.81,1.34,2.57.3.24.64.49.96.82-1.1.59-2.06,1.72-2.29,3.69-.44.54-1.03.81-1.98.96-.13.02-.25.1-.34.23-.19.27-.23.73-.18,1.01.02.13.03.16.15.06.3-.25.5-.39.81-.37.88.47,2.35,1.08,3.03,1.26,1.12.62,2.79,1.01,3.78,1.1.68.06.66.08,1.4.26.73.18,1.52.25,2.23.27.46.17.97.29,1.37.33.19.02.2,0,.09-.14-.03-.04-.11-.13-.19-.23.12-.01.22-.03.31-.05.03.03.06.06.09.09.35.34.36.35.8,1.03.66,1.01,1.93,1.69,3.74,1.96,4.39.65,10.2-.38,12.34-2.53.13-.13.11-.23-.05-.23Z"/>
    </g>
    <rect class="cls-11" y="331.85" width="2042.49" height="73.46"/>
    <path class="cls-1" d="M1314.3,340.19h2.03c-.07-.29-.15-.57-.22-.86-.6.3-1.2.59-1.81.86Z"/>
    <polygon class="cls-11" points="373.95 340.19 357.62 323.2 0 325.99 0 347.09 384.08 347.09 373.95 340.19"/>
    <path class="cls-11" d="M1655.97,329.09c1.57-1.53,64.64-67.47,64.64-67.47l134.61,72.38-199.24,2.95v-7.85Z"/>
  </g>
</svg>